<svg xmlns="http://www.w3.org/2000/svg" viewBox="0 0 1786.28 294.88" fill="#fff">
  <path d="M242.22,116.3c0-16.4-5.36-27.18-10.87-32.51-23.53-21.27-63.59-54.77-88.18-75.69C137.34,3.07,129.4.07,121.52,0h-.66c-7.87.07-15.82,3.07-21.65,8.1C74.63,29.02,34.57,62.52,11.04,83.79,5.52,89.13.16,99.9.16,116.3c0,36.82.07,133.15-.16,152.58.75,14.05,14.23,25.49,28.04,26h186.31c13.81-.51,27.28-11.95,28.04-26-.23-19.42-.16-115.76-.16-152.58h0ZM105.38,195.66l-.03.05c-3.11,5.13-9,8.05-14.37,4.47-10.73-7.47-11.06-32.31-7.94-43.94,1.38-5.51,3.77-11.8,8.97-14.62,5.49-2.94,11.11.66,13.84,5.67,1.97,3.41,3.1,7.25,3.9,11.12,2.34,11.79,1.83,26.68-4.36,37.24h0ZM151.41,200.19c-5.38,3.57-11.27.65-14.37-4.47l-.03-.05c-6.19-10.56-6.7-25.45-4.36-37.24.79-3.87,1.93-7.71,3.9-11.12,2.73-5.01,8.35-8.62,13.84-5.67,5.2,2.82,7.59,9.11,8.97,14.62,3.11,11.63,2.79,36.47-7.94,43.94h0Z"/>
  <path d="M327.91 269.13v25.75h-32.39V0h32.39v108.82l38.21-25.75h32.81c12.73 0 24.43 3.11 35.09 9.34 10.66 6.23 19.17 14.74 25.54 25.54 6.37 10.8 9.55 22.57 9.55 35.3v71.44c0 12.74-3.19 24.44-9.55 35.09-6.37 10.66-14.89 19.18-25.54 25.54-10.66 6.37-22.36 9.55-35.09 9.55h-32.81l-38.21-25.75Zm48.18-6.64h22.84c10.52 0 19.45-3.74 26.79-11.21 7.33-7.48 11.01-16.33 11.01-26.58v-71.44c0-10.52-3.67-19.45-11.01-26.79-7.34-7.33-16.27-11.01-26.79-11.01h-22.84l-48.18 32.81v81.4l48.18 32.81Z"/>
  <path d="M479.42 262.49h68.53V115.46h-68.53v-32.4h100.92v179.42h75.3v32.39H479.42v-32.39ZM540.06 3.32h40.29v39.04h-40.29V3.32Z"/>
  <path d="M653.11 262.49h68.53V32.4h-68.53V0h100.92v262.49h72.68v32.39H653.1v-32.39Z"/>
  <path d="M866.71 285.33c-10.66-6.37-19.18-14.88-25.54-25.54-6.37-10.66-9.55-22.36-9.55-35.09v-71.44c0-12.73 3.18-24.5 9.55-35.3 6.37-10.8 14.88-19.31 25.54-25.54 10.66-6.23 22.36-9.34 35.1-9.34h32.81l38.21 25.75V0h32.39v294.88h-32.39v-25.75l-38.21 25.75h-32.81c-12.74 0-24.44-3.18-35.1-9.55Zm8.51-34.06c7.48 7.48 16.33 11.21 26.58 11.21h22.84l48.18-32.81v-81.4l-48.18-32.81H901.8c-10.25 0-19.1 3.67-26.58 11.01-7.48 7.34-11.21 16.27-11.21 26.79v71.44c0 10.25 3.74 19.1 11.21 26.58v-.01Z"/>
  <path d="M1065.03 0v108.82l38.21-25.75h32.81c12.73 0 24.43 3.11 35.09 9.34 10.66 6.23 19.17 14.74 25.54 25.54 6.37 10.8 9.55 22.57 9.55 35.3v141.63h-32.39V153.25c0-10.52-3.67-19.45-11.01-26.79-7.34-7.33-16.27-11.01-26.79-11.01h-22.84l-48.18 32.81v146.61h-32.39V0h32.39Z"/>
  <path d="M1262.01 285.33c-10.66-6.37-19.18-14.88-25.54-25.54-6.37-10.66-9.55-22.36-9.55-35.09v-71.44c0-12.73 3.18-24.5 9.55-35.3 6.37-10.8 14.88-19.31 25.54-25.54 10.66-6.23 22.36-9.34 35.1-9.34h32.81l38.21 25.75V83.08h32.4V294.9h-32.4v-25.75l-38.21 25.75h-32.81c-12.74 0-24.44-3.18-35.1-9.55Zm8.52-34.06c7.48 7.48 16.33 11.21 26.58 11.21h22.84l48.18-32.81v-81.4l-48.18-32.81h-22.84c-10.25 0-19.1 3.67-26.58 11.01-7.48 7.34-11.21 16.27-11.21 26.79v71.44c0 10.25 3.74 19.1 11.21 26.58v-.01Z"/>
  <path d="M1470.01 251.27c7.48 7.48 16.33 11.21 26.58 11.21h22.84l48.18-31.98V83.06H1600v211.82h-32.39v-27.41l-38.21 27.41h-32.81c-12.74 0-24.44-3.11-35.09-9.34-10.66-6.23-19.18-14.74-25.54-25.54-6.37-10.8-9.55-22.56-9.55-35.3V83.06h32.39v141.63c0 10.25 3.74 19.1 11.21 26.58Z"/>
  <path d="M1650.88 287.4c-10.25-4.98-18.27-11.84-24.09-20.56-5.81-8.72-8.72-18.34-8.72-28.87v-11.63h32.39v11.63c0 7.48 3.18 13.78 9.55 18.9 6.37 5.13 14.54 7.68 24.5 7.68h34.47c11.35 0 20-2.28 25.96-6.85 5.95-4.57 8.93-11.01 8.93-19.31s-2.56-14.54-7.68-19.52c-5.13-4.98-11.49-8.86-19.1-11.63-7.62-2.76-18.07-5.81-31.36-9.14-16.34-4.15-29.42-8.16-39.25-12.04-9.83-3.87-18.21-9.76-25.13-17.65-6.92-7.89-10.38-18.34-10.38-31.36 0-16.06 5.95-29.07 17.86-39.04 11.9-9.97 27.27-14.95 46.1-14.95h30.73c11.63 0 22.29 2.56 31.98 7.68 9.69 5.13 17.3 12.04 22.84 20.77 5.54 8.72 8.31 18.35 8.31 28.86v6.23h-32.4v-6.23c0-7.48-2.98-13.84-8.93-19.1-5.96-5.26-13.22-7.89-21.8-7.89h-30.73c-10.25 0-18 2.15-23.26 6.44-5.26 4.3-7.89 10.04-7.89 17.24 0 7.75 3.95 13.57 11.84 17.44 7.89 3.88 20.14 7.89 36.76 12.04 17.16 4.43 31.42 8.93 42.78 13.5 11.35 4.57 21.04 11.56 29.07 20.97 8.03 9.42 12.04 21.88 12.04 37.38 0 16.89-6.16 30.53-18.48 40.91-12.32 10.38-28.59 15.57-48.8 15.57h-34.47c-12.19 0-23.4-2.49-33.64-7.48Z"/>
</svg>
